<svg style="position: absolute; width: 0; height: 0; overflow: hidden;" version="1.1" xmlns="http://www.w3.org/2000/svg" xmlns:xlink="http://www.w3.org/1999/xlink">
<defs>
<symbol id="icon-arrow-circle-left" viewBox="0 0 24 28">
<path class="path1" d="M20 15v-2c0-0.547-0.453-1-1-1h-7.844l2.953-2.953c0.187-0.187 0.297-0.438 0.297-0.703s-0.109-0.516-0.297-0.703l-1.422-1.422c-0.187-0.187-0.438-0.281-0.703-0.281s-0.516 0.094-0.703 0.281l-7.078 7.078c-0.187 0.187-0.281 0.438-0.281 0.703s0.094 0.516 0.281 0.703l7.078 7.078c0.187 0.187 0.438 0.281 0.703 0.281s0.516-0.094 0.703-0.281l1.422-1.422c0.187-0.187 0.281-0.438 0.281-0.703s-0.094-0.516-0.281-0.703l-2.953-2.953h7.844c0.547 0 1-0.453 1-1zM24 14c0 6.625-5.375 12-12 12s-12-5.375-12-12 5.375-12 12-12 12 5.375 12 12z"></path>
</symbol>
<symbol id="icon-arrow-circle-right" viewBox="0 0 24 28">
<path class="path1" d="M20.078 14c0-0.266-0.094-0.516-0.281-0.703l-7.078-7.078c-0.187-0.187-0.438-0.281-0.703-0.281s-0.516 0.094-0.703 0.281l-1.422 1.422c-0.187 0.187-0.281 0.438-0.281 0.703s0.094 0.516 0.281 0.703l2.953 2.953h-7.844c-0.547 0-1 0.453-1 1v2c0 0.547 0.453 1 1 1h7.844l-2.953 2.953c-0.187 0.187-0.297 0.438-0.297 0.703s0.109 0.516 0.297 0.703l1.422 1.422c0.187 0.187 0.438 0.281 0.703 0.281s0.516-0.094 0.703-0.281l7.078-7.078c0.187-0.187 0.281-0.438 0.281-0.703zM24 14c0 6.625-5.375 12-12 12s-12-5.375-12-12 5.375-12 12-12 12 5.375 12 12z"></path>
</symbol>
<symbol id="icon-twitter" viewBox="0 0 26 28">
<path class="path1" d="M25.312 6.375c-0.688 1-1.547 1.891-2.531 2.609 0.016 0.219 0.016 0.438 0.016 0.656 0 6.672-5.078 14.359-14.359 14.359-2.859 0-5.516-0.828-7.75-2.266 0.406 0.047 0.797 0.063 1.219 0.063 2.359 0 4.531-0.797 6.266-2.156-2.219-0.047-4.078-1.5-4.719-3.5 0.313 0.047 0.625 0.078 0.953 0.078 0.453 0 0.906-0.063 1.328-0.172-2.312-0.469-4.047-2.5-4.047-4.953v-0.063c0.672 0.375 1.453 0.609 2.281 0.641-1.359-0.906-2.25-2.453-2.25-4.203 0-0.938 0.25-1.797 0.688-2.547 2.484 3.062 6.219 5.063 10.406 5.281-0.078-0.375-0.125-0.766-0.125-1.156 0-2.781 2.25-5.047 5.047-5.047 1.453 0 2.766 0.609 3.687 1.594 1.141-0.219 2.234-0.641 3.203-1.219-0.375 1.172-1.172 2.156-2.219 2.781 1.016-0.109 2-0.391 2.906-0.781z"></path>
</symbol>
<symbol id="icon-facebook" viewBox="0 0 16 28">
<path class="path1" d="M14.984 0.187v4.125h-2.453c-1.922 0-2.281 0.922-2.281 2.25v2.953h4.578l-0.609 4.625h-3.969v11.859h-4.781v-11.859h-3.984v-4.625h3.984v-3.406c0-3.953 2.422-6.109 5.953-6.109 1.687 0 3.141 0.125 3.563 0.187z"></path>
</symbol>
<symbol id="icon-instagram" viewBox="0 0 24 28">
<path class="path1" d="M16 14c0-2.203-1.797-4-4-4s-4 1.797-4 4 1.797 4 4 4 4-1.797 4-4zM18.156 14c0 3.406-2.75 6.156-6.156 6.156s-6.156-2.75-6.156-6.156 2.75-6.156 6.156-6.156 6.156 2.75 6.156 6.156zM19.844 7.594c0 0.797-0.641 1.437-1.437 1.437s-1.437-0.641-1.437-1.437 0.641-1.437 1.437-1.437 1.437 0.641 1.437 1.437zM12 4.156c-1.75 0-5.5-0.141-7.078 0.484-0.547 0.219-0.953 0.484-1.375 0.906s-0.688 0.828-0.906 1.375c-0.625 1.578-0.484 5.328-0.484 7.078s-0.141 5.5 0.484 7.078c0.219 0.547 0.484 0.953 0.906 1.375s0.828 0.688 1.375 0.906c1.578 0.625 5.328 0.484 7.078 0.484s5.5 0.141 7.078-0.484c0.547-0.219 0.953-0.484 1.375-0.906s0.688-0.828 0.906-1.375c0.625-1.578 0.484-5.328 0.484-7.078s0.141-5.5-0.484-7.078c-0.219-0.547-0.484-0.953-0.906-1.375s-0.828-0.688-1.375-0.906c-1.578-0.625-5.328-0.484-7.078-0.484zM24 14c0 1.656 0.016 3.297-0.078 4.953-0.094 1.922-0.531 3.625-1.937 5.031s-3.109 1.844-5.031 1.937c-1.656 0.094-3.297 0.078-4.953 0.078s-3.297 0.016-4.953-0.078c-1.922-0.094-3.625-0.531-5.031-1.937s-1.844-3.109-1.937-5.031c-0.094-1.656-0.078-3.297-0.078-4.953s-0.016-3.297 0.078-4.953c0.094-1.922 0.531-3.625 1.937-5.031s3.109-1.844 5.031-1.937c1.656-0.094 3.297-0.078 4.953-0.078s3.297-0.016 4.953 0.078c1.922 0.094 3.625 0.531 5.031 1.937s1.844 3.109 1.937 5.031c0.094 1.656 0.078 3.297 0.078 4.953z"></path>
</symbol>
<symbol id="icon-youtube" viewBox="0 0 24 28">
<path class="path1" d="M15.172 19.437v3.297c0 0.703-0.203 1.047-0.609 1.047-0.234 0-0.469-0.109-0.703-0.344v-4.703c0.234-0.234 0.469-0.344 0.703-0.344 0.406 0 0.609 0.359 0.609 1.047zM20.453 19.453v0.719h-1.406v-0.719c0-0.703 0.234-1.062 0.703-1.062s0.703 0.359 0.703 1.062zM5.359 16.047h1.672v-1.469h-4.875v1.469h1.641v8.891h1.563v-8.891zM9.859 24.938h1.391v-7.719h-1.391v5.906c-0.313 0.438-0.609 0.656-0.891 0.656-0.187 0-0.297-0.109-0.328-0.328-0.016-0.047-0.016-0.219-0.016-0.547v-5.688h-1.391v6.109c0 0.547 0.047 0.906 0.125 1.141 0.125 0.391 0.453 0.578 0.906 0.578 0.5 0 1.031-0.313 1.594-0.953v0.844zM16.562 22.625v-3.078c0-0.719-0.031-1.234-0.141-1.547-0.172-0.578-0.562-0.875-1.109-0.875-0.516 0-1 0.281-1.453 0.844v-3.391h-1.391v10.359h1.391v-0.75c0.469 0.578 0.953 0.859 1.453 0.859 0.547 0 0.938-0.297 1.109-0.859 0.109-0.328 0.141-0.844 0.141-1.563zM21.844 22.469v-0.203h-1.422c0 0.562-0.016 0.875-0.031 0.953-0.078 0.375-0.281 0.562-0.625 0.562-0.484 0-0.719-0.359-0.719-1.078v-1.359h2.797v-1.609c0-0.828-0.141-1.422-0.422-1.813-0.406-0.531-0.953-0.797-1.656-0.797-0.719 0-1.266 0.266-1.672 0.797-0.297 0.391-0.438 0.984-0.438 1.813v2.703c0 0.828 0.156 1.437 0.453 1.813 0.406 0.531 0.953 0.797 1.687 0.797s1.313-0.281 1.687-0.828c0.172-0.25 0.297-0.531 0.328-0.844 0.031-0.141 0.031-0.453 0.031-0.906zM12.344 8.203v-3.281c0-0.719-0.203-1.078-0.672-1.078-0.453 0-0.672 0.359-0.672 1.078v3.281c0 0.719 0.219 1.094 0.672 1.094 0.469 0 0.672-0.375 0.672-1.094zM23.578 19.938c0 1.797-0.016 3.719-0.406 5.469-0.297 1.234-1.297 2.141-2.5 2.266-2.875 0.328-5.781 0.328-8.672 0.328s-5.797 0-8.672-0.328c-1.203-0.125-2.219-1.031-2.5-2.266-0.406-1.75-0.406-3.672-0.406-5.469v0c0-1.813 0.016-3.719 0.406-5.469 0.297-1.234 1.297-2.141 2.516-2.281 2.859-0.313 5.766-0.313 8.656-0.313s5.797 0 8.672 0.313c1.203 0.141 2.219 1.047 2.5 2.281 0.406 1.75 0.406 3.656 0.406 5.469zM7.984 0h1.594l-1.891 6.234v4.234h-1.563v-4.234c-0.141-0.766-0.453-1.859-0.953-3.313-0.344-0.969-0.688-1.953-1.016-2.922h1.656l1.109 4.109zM13.766 5.203v2.734c0 0.828-0.141 1.453-0.438 1.844-0.391 0.531-0.938 0.797-1.656 0.797-0.703 0-1.25-0.266-1.641-0.797-0.297-0.406-0.438-1.016-0.438-1.844v-2.734c0-0.828 0.141-1.437 0.438-1.828 0.391-0.531 0.938-0.797 1.641-0.797 0.719 0 1.266 0.266 1.656 0.797 0.297 0.391 0.438 1 0.438 1.828zM19 2.672v7.797h-1.422v-0.859c-0.562 0.656-1.094 0.969-1.609 0.969-0.453 0-0.781-0.187-0.922-0.578-0.078-0.234-0.125-0.609-0.125-1.172v-6.156h1.422v5.734c0 0.328 0 0.516 0.016 0.547 0.031 0.219 0.141 0.344 0.328 0.344 0.281 0 0.578-0.219 0.891-0.672v-5.953h1.422z"></path>
</symbol>
<symbol id="icon-chain" viewBox="0 0 26 28">
<path class="path1" d="M22.75 19c0-0.406-0.156-0.781-0.438-1.062l-3.25-3.25c-0.281-0.281-0.672-0.438-1.062-0.438-0.453 0-0.812 0.172-1.125 0.5 0.516 0.516 1.125 0.953 1.125 1.75 0 0.828-0.672 1.5-1.5 1.5-0.797 0-1.234-0.609-1.75-1.125-0.328 0.313-0.516 0.672-0.516 1.141 0 0.391 0.156 0.781 0.438 1.062l3.219 3.234c0.281 0.281 0.672 0.422 1.062 0.422s0.781-0.141 1.062-0.406l2.297-2.281c0.281-0.281 0.438-0.656 0.438-1.047zM11.766 7.984c0-0.391-0.156-0.781-0.438-1.062l-3.219-3.234c-0.281-0.281-0.672-0.438-1.062-0.438s-0.781 0.156-1.062 0.422l-2.297 2.281c-0.281 0.281-0.438 0.656-0.438 1.047 0 0.406 0.156 0.781 0.438 1.062l3.25 3.25c0.281 0.281 0.672 0.422 1.062 0.422 0.453 0 0.812-0.156 1.125-0.484-0.516-0.516-1.125-0.953-1.125-1.75 0-0.828 0.672-1.5 1.5-1.5 0.797 0 1.234 0.609 1.75 1.125 0.328-0.313 0.516-0.672 0.516-1.141zM25.75 19c0 1.188-0.484 2.344-1.328 3.172l-2.297 2.281c-0.844 0.844-1.984 1.297-3.172 1.297-1.203 0-2.344-0.469-3.187-1.328l-3.219-3.234c-0.844-0.844-1.297-1.984-1.297-3.172 0-1.234 0.5-2.406 1.375-3.266l-1.375-1.375c-0.859 0.875-2.016 1.375-3.25 1.375-1.188 0-2.344-0.469-3.187-1.313l-3.25-3.25c-0.859-0.859-1.313-1.984-1.313-3.187 0-1.188 0.484-2.344 1.328-3.172l2.297-2.281c0.844-0.844 1.984-1.297 3.172-1.297 1.203 0 2.344 0.469 3.187 1.328l3.219 3.234c0.844 0.844 1.297 1.984 1.297 3.172 0 1.234-0.5 2.406-1.375 3.266l1.375 1.375c0.859-0.875 2.016-1.375 3.25-1.375 1.188 0 2.344 0.469 3.187 1.313l3.25 3.25c0.859 0.859 1.313 1.984 1.313 3.187z"></path>
</symbol>
<symbol id="icon-logo" viewBox="0 0 206 32">
<path class="path1" fill="#042f66" d="M16.499 18.354h-3.899l1.236-3.804 0.618-1.854 1.902 5.23 0.143 0.428zM18.734 25.248h3.756l-6.562-18.401h-2.615l-6.562 18.401h3.566l1.379-4.042h5.611l1.426 4.042zM35.423 25.343h2.615v-18.354h-3.376v11.317l-1.094-1.664-6.895-9.795h-2.615v18.354h3.376v-11.174l1.189 1.712 6.799 9.605zM44.933 12.838c-0.428-0.333-0.618-0.761-0.618-1.284 0-0.571 0.238-0.998 0.666-1.331s1.094-0.475 1.902-0.475c0.903 0 1.712 0.095 2.473 0.285s1.331 0.428 1.712 0.666l1.141-2.996c-0.618-0.333-1.379-0.618-2.33-0.808s-1.949-0.285-2.996-0.285c-0.903 0-1.759 0.095-2.52 0.333-0.761 0.19-1.379 0.523-1.949 0.951s-0.951 0.998-1.284 1.617c-0.285 0.666-0.428 1.426-0.428 2.282 0 1.046 0.19 1.854 0.618 2.52s0.903 1.189 1.522 1.664c0.618 0.428 1.284 0.808 1.997 1.141 0.713 0.285 1.379 0.618 1.997 0.903s1.141 0.618 1.522 0.951c0.428 0.333 0.618 0.808 0.618 1.331 0 0.713-0.285 1.284-0.856 1.617s-1.379 0.523-2.425 0.523c-0.475 0-0.903-0.048-1.331-0.095s-0.808-0.143-1.189-0.238c-0.38-0.095-0.713-0.238-1.046-0.333-0.285-0.143-0.571-0.238-0.761-0.333l-1.141 3.043c0.475 0.238 1.189 0.475 2.187 0.713s2.14 0.38 3.423 0.38c0.998 0 1.902-0.095 2.71-0.333s1.522-0.571 2.092-1.046c0.571-0.475 1.046-1.046 1.331-1.759 0.333-0.713 0.475-1.522 0.475-2.52 0-0.951-0.19-1.807-0.618-2.425-0.428-0.666-0.903-1.189-1.522-1.664-0.618-0.428-1.284-0.808-1.997-1.141s-1.379-0.618-1.997-0.903c-0.475-0.238-0.998-0.571-1.379-0.951zM55.346 25.248h3.566v-18.259h-3.566v18.259zM73.557 16.119c0 2.235-0.333 3.851-1.046 4.802-0.713 0.998-1.664 1.474-2.948 1.474-0.713 0-1.284-0.143-1.807-0.475s-0.903-0.761-1.236-1.284c-0.333-0.571-0.571-1.236-0.713-1.997s-0.238-1.617-0.238-2.52c0-2.187 0.333-3.756 1.046-4.802 0.713-0.998 1.664-1.522 2.948-1.522 0.713 0 1.331 0.143 1.854 0.475s0.903 0.761 1.236 1.331c0.333 0.571 0.523 1.236 0.713 1.997s0.19 1.617 0.19 2.52zM75.269 23.156c1.331-1.664 1.997-3.994 1.997-7.037 0-1.426-0.143-2.71-0.475-3.899-0.333-1.141-0.808-2.14-1.426-2.996-0.666-0.856-1.474-1.474-2.425-1.949-0.951-0.428-2.092-0.666-3.423-0.666-2.472 0-4.374 0.808-5.753 2.473-1.331 1.664-1.997 3.994-1.997 7.037 0 1.426 0.143 2.71 0.475 3.899 0.333 1.141 0.808 2.14 1.426 2.996s1.426 1.474 2.425 1.949c0.951 0.428 2.14 0.666 3.423 0.666 2.52-0.048 4.422-0.856 5.753-2.473zM126.574 25.248h3.566v-18.259h-3.186l-4.612 8.273-0.761 1.474h-0.095l-0.856-1.426-4.85-8.321h-3.233v18.211h3.376v-11.126l-0.048-0.333 0.761 1.331 4.089 6.847h1.141l3.899-6.799 0.856-1.712v0.285l0.048 2.14v9.415zM133.278 25.248h10.936v-3.186h-7.37v-4.47h6.609v-3.186h-6.609v-4.232h7.227v-3.186h-10.793v18.259zM155.245 12.41c0 1.046-0.285 1.807-0.903 2.235-0.571 0.428-1.379 0.666-2.377 0.666h-1.522v-5.278c0.19-0.048 0.475-0.095 0.808-0.095s0.713-0.048 1.094-0.048c0.951 0 1.664 0.238 2.14 0.666 0.475 0.475 0.761 1.094 0.761 1.854zM158.478 21.682l-2.615-4.517c0.856-0.38 1.522-0.951 2.092-1.664 0.713-0.951 1.046-2.14 1.046-3.661 0-0.998-0.19-1.854-0.571-2.52s-0.903-1.189-1.569-1.569c-0.666-0.38-1.379-0.666-2.235-0.808-0.808-0.143-1.664-0.238-2.52-0.238-0.38 0-0.761 0-1.189 0.048-0.428 0-0.903 0.048-1.331 0.095-0.475 0.048-0.903 0.095-1.379 0.143s-0.903 0.143-1.284 0.19v18.068h3.566v-7.513l1.854 0.333 4.137 7.132h4.137l-2.14-3.519zM170.793 16.642l-0.713-1.094 0.666-0.903 5.325-7.655h-4.042l-5.040 7.703-0.856 0.38v-8.083h-3.566v18.211h3.566v-7.75h0.951l5.373 7.798h4.422l-6.086-8.606zM179.067 25.343h3.566v-18.259h-3.566v18.259zM199.085 10.27v-3.186h-14.217v3.186h5.325v15.073h3.566v-15.073h5.325z"></path>
<path class="path2" fill="#e46c70" d="M82.782 23.917v-17.545l-2.235 2.33v15.311l0.475 0.475z"></path>
<path class="path3" fill="#e46c70" d="M106.651 8.796v17.498l2.187-2.33v-15.263l-0.428-0.523z"></path>
<path class="path4" fill="#d20a11" d="M82.782 6.371v0z"></path>
<path class="path5" fill="#d20a11" d="M88.82 24.297l1.902 1.949h8.036l1.902-1.949 5.991 1.997v-2.377l-4.232-1.426 1.997-2.045v-8.226l-1.997-2.045 5.991-1.997-1.759-1.807-6.039 1.997-1.902-1.949h-8.036l-1.902 1.949-5.991-1.997v2.377l4.232 1.426-1.997 2.045v8.226l1.997 2.045-5.991 1.997 1.759 1.807 6.039-1.997zM102.181 19.495l-4.374 4.47h-6.181l-4.374-4.47v-6.324l4.374-4.47h6.181l4.374 4.47v6.324z"></path>
<path class="path6" fill="#d20a11" d="M106.651 26.294v0 0z"></path>
</symbol>
<symbol id="icon-logo-1" viewBox="0 0 206 32">
<path class="path1" fill="#042f66" d="M16.499 18.354h-3.899l1.236-3.804 0.618-1.854 1.902 5.23 0.143 0.428zM18.734 25.248h3.756l-6.562-18.401h-2.615l-6.562 18.401h3.566l1.379-4.042h5.611l1.426 4.042zM35.423 25.343h2.615v-18.354h-3.376v11.317l-1.094-1.664-6.895-9.795h-2.615v18.354h3.376v-11.174l1.189 1.712 6.799 9.605zM44.933 12.838c-0.428-0.333-0.618-0.761-0.618-1.284 0-0.571 0.238-0.998 0.666-1.331s1.094-0.475 1.902-0.475c0.903 0 1.712 0.095 2.473 0.285s1.331 0.428 1.712 0.666l1.141-2.996c-0.618-0.333-1.379-0.618-2.33-0.808s-1.949-0.285-2.996-0.285c-0.903 0-1.759 0.095-2.52 0.333-0.761 0.19-1.379 0.523-1.949 0.951s-0.951 0.998-1.284 1.617c-0.285 0.666-0.428 1.426-0.428 2.282 0 1.046 0.19 1.854 0.618 2.52s0.903 1.189 1.522 1.664c0.618 0.428 1.284 0.808 1.997 1.141 0.713 0.285 1.379 0.618 1.997 0.903s1.141 0.618 1.522 0.951c0.428 0.333 0.618 0.808 0.618 1.331 0 0.713-0.285 1.284-0.856 1.617s-1.379 0.523-2.425 0.523c-0.475 0-0.903-0.048-1.331-0.095s-0.808-0.143-1.189-0.238-0.713-0.238-1.046-0.333-0.571-0.238-0.761-0.333l-1.141 3.043c0.475 0.238 1.189 0.475 2.187 0.713s2.14 0.38 3.423 0.38c0.998 0 1.902-0.095 2.71-0.333s1.522-0.571 2.092-1.046c0.571-0.475 1.046-1.046 1.331-1.759 0.333-0.713 0.475-1.522 0.475-2.52 0-0.951-0.19-1.807-0.618-2.425-0.428-0.666-0.903-1.189-1.522-1.664-0.618-0.428-1.284-0.808-1.997-1.141s-1.379-0.618-1.997-0.903c-0.475-0.238-0.998-0.571-1.379-0.951zM55.346 25.248h3.566v-18.259h-3.566v18.259zM73.557 16.119c0 2.235-0.333 3.851-1.046 4.802-0.713 0.998-1.664 1.474-2.948 1.474-0.713 0-1.284-0.143-1.807-0.475s-0.903-0.761-1.236-1.284c-0.333-0.571-0.571-1.236-0.713-1.997s-0.238-1.617-0.238-2.52c0-2.187 0.333-3.756 1.046-4.802 0.713-0.998 1.664-1.522 2.948-1.522 0.713 0 1.331 0.143 1.854 0.475s0.903 0.761 1.236 1.331c0.333 0.571 0.523 1.236 0.713 1.997s0.19 1.617 0.19 2.52zM75.269 23.156c1.331-1.664 1.997-3.994 1.997-7.037 0-1.426-0.143-2.71-0.475-3.899-0.333-1.141-0.808-2.14-1.426-2.996-0.666-0.856-1.474-1.474-2.425-1.949-0.951-0.428-2.092-0.666-3.423-0.666-2.472 0-4.374 0.808-5.753 2.473-1.331 1.664-1.997 3.994-1.997 7.037 0 1.426 0.143 2.71 0.475 3.899 0.333 1.141 0.808 2.14 1.426 2.996s1.426 1.474 2.425 1.949c0.951 0.428 2.14 0.666 3.423 0.666 2.52-0.048 4.422-0.856 5.753-2.473zM126.574 25.248h3.566v-18.259h-3.186l-4.612 8.273-0.761 1.474h-0.095l-0.856-1.426-4.85-8.321h-3.233v18.211h3.376v-11.126l-0.048-0.333 0.761 1.331 4.089 6.847h1.141l3.899-6.799 0.856-1.712v0.285l0.048 2.14v9.415zM133.278 25.248h10.936v-3.186h-7.37v-4.47h6.609v-3.186h-6.609v-4.232h7.227v-3.186h-10.793v18.259zM155.245 12.41c0 1.046-0.285 1.807-0.903 2.235-0.571 0.428-1.379 0.666-2.377 0.666h-1.522v-5.278c0.19-0.048 0.475-0.095 0.808-0.095s0.713-0.048 1.094-0.048c0.951 0 1.664 0.238 2.14 0.666 0.475 0.475 0.761 1.094 0.761 1.854zM158.478 21.682l-2.615-4.517c0.856-0.38 1.522-0.951 2.092-1.664 0.713-0.951 1.046-2.14 1.046-3.661 0-0.998-0.19-1.854-0.571-2.52s-0.903-1.189-1.569-1.569c-0.666-0.38-1.379-0.666-2.235-0.808-0.808-0.143-1.664-0.238-2.52-0.238-0.38 0-0.761 0-1.189 0.048-0.428 0-0.903 0.048-1.331 0.095-0.475 0.048-0.903 0.095-1.379 0.143s-0.903 0.143-1.284 0.19v18.068h3.566v-7.513l1.854 0.333 4.137 7.132h4.137l-2.14-3.519zM170.793 16.642l-0.713-1.094 0.666-0.903 5.325-7.655h-4.042l-5.040 7.703-0.856 0.38v-8.083h-3.566v18.211h3.566v-7.75h0.951l5.373 7.798h4.422l-6.086-8.606zM179.067 25.343h3.566v-18.259h-3.566v18.259zM199.085 10.27v-3.186h-14.217v3.186h5.325v15.073h3.566v-15.073h5.325z"></path>
<path class="path2" fill="#e46c70" d="M82.782 23.917v-17.545l-2.235 2.33v15.311l0.475 0.475zM106.651 8.796v17.498l2.187-2.33v-15.263l-0.428-0.523z"></path>
<path class="path3" fill="#d20a11" d="M82.782 6.371v0zM88.82 24.297l1.902 1.949h8.036l1.902-1.949 5.991 1.997v-2.377l-4.232-1.426 1.997-2.045v-8.226l-1.997-2.045 5.991-1.997-1.759-1.807-6.039 1.997-1.902-1.949h-8.036l-1.902 1.949-5.991-1.997v2.377l4.232 1.426-1.997 2.045v8.226l1.997 2.045-5.991 1.997 1.759 1.807 6.039-1.997zM102.181 19.495l-4.374 4.47h-6.181l-4.374-4.47v-6.324l4.374-4.47h6.181l4.374 4.47v6.324z"></path>
</symbol>
<symbol id="icon-top-left" viewBox="0 0 31 32">
<path class="path1" fill="#646e9b" d="M4.449 8.66v1.043h-0.053v1.888h-4.396l0.502-0.515 1.347-1.373 1.043-1.043z"></path>
<path class="path2" fill="#646e9b" d="M8.739 11.591h-1.518v-2.931h1.531z"></path>
<path class="path3" fill="#213362" d="M0.502 11.076l-0.502 0.488v0.013z"></path>
<path class="path4" fill="#213362" d="M2.891 31.168h-2.891v-19.578h2.891z"></path>
<path class="path5" fill="#213362" d="M7.221 7.234v23.934h-2.825v-23.934z"></path>
<path class="path6" fill="#646e9b" d="M11.67 4.422h19.393v2.812h-19.393z"></path>
<path class="path7" fill="#646e9b" d="M8.832 4.422v2.812h-4.436l1.888-1.875 0.964-0.937z"></path>
<path class="path8" fill="#646e9b" d="M11.67 0h19.353v0.937h0.040v1.875h-19.393z"></path>
<path class="path9" fill="#213362" d="M11.67 8.832v-8.832l-0.515 0.502-1.373 1.347-1.043 1.043v8.7z"></path>
</symbol>
<symbol id="icon-top-right" viewBox="0 0 31 32">
<path class="path1" fill="#646e9b" d="M22.455 4.502h-1.043v-0.040h-1.888v-4.409l0.515 0.502v0.013l1.373 1.347 1.043 1.030z"></path>
<path class="path2" fill="#646e9b" d="M19.525 8.792v-1.518h2.931v1.545z"></path>
<path class="path3" fill="#213362" d="M20.040 0.568l-0.488-0.515h-0.026z"></path>
<path class="path4" fill="#213362" d="M-0.053 2.944v-2.891h19.578v2.891z"></path>
<path class="path5" fill="#213362" d="M23.868 7.274h-23.921v-2.812h23.921z"></path>
<path class="path6" fill="#646e9b" d="M26.693 11.723v19.393h-2.825v-19.393z"></path>
<path class="path7" fill="#646e9b" d="M26.693 8.884h-2.825v-4.422l1.888 1.875 0.937 0.964z"></path>
<path class="path8" fill="#646e9b" d="M31.116 11.723v19.366h-0.937v0.026h-1.875v-19.393z"></path>
<path class="path9" fill="#213362" d="M22.284 11.723h8.832l-0.502-0.502v-0.013l-1.36-1.36-1.030-1.056h-8.7z"></path>
</symbol>
<symbol id="icon-bottom-left" viewBox="0 0 31 32">
<path class="path1" fill="#646e9b" d="M8.594 26.667h1.056v0.040h1.875v4.409l-0.502-0.502h-0.013l-1.36-1.36-1.056-1.030z"></path>
<path class="path2" fill="#646e9b" d="M11.525 22.376v1.518h-2.931v-1.531z"></path>
<path class="path3" fill="#213362" d="M11.010 30.614l0.488 0.502h0.026z"></path>
<path class="path4" fill="#213362" d="M31.116 28.224v2.891h-19.591v-2.891z"></path>
<path class="path5" fill="#213362" d="M7.182 23.894h23.934v2.812h-23.934z"></path>
<path class="path6" fill="#646e9b" d="M4.37 19.446v-19.393h2.812v19.393z"></path>
<path class="path7" fill="#646e9b" d="M4.37 22.284h2.812v4.422l-1.875-1.875-0.937-0.964z"></path>
<path class="path8" fill="#646e9b" d="M-0.053 19.446v-19.366h0.937v-0.026h1.875v19.393z"></path>
<path class="path9" fill="#213362" d="M8.779 19.446h-8.832l0.502 0.502v0.013l1.347 1.36 1.030 1.056h8.7z"></path>
</symbol>
<symbol id="icon-bottom-right" viewBox="0 0 31 32">
<path class="path1" fill="#646e9b" d="M26.614 22.508v-1.043h0.040v-1.875h4.409l-0.502 0.502h-0.013l-1.347 1.373-1.030 1.043z"></path>
<path class="path2" fill="#646e9b" d="M22.31 19.591h1.518v2.918h-1.531z"></path>
<path class="path3" fill="#213362" d="M30.548 20.092l0.515-0.488v-0.013z"></path>
<path class="path4" fill="#213362" d="M28.172 0h2.891v19.591h-2.891z"></path>
<path class="path5" fill="#213362" d="M23.828 23.934v-4.343l0.013-19.591h2.812v23.934z"></path>
<path class="path6" fill="#646e9b" d="M19.393 26.746h-19.393v-2.812h19.393z"></path>
<path class="path7" fill="#646e9b" d="M22.231 26.746v-2.812h4.422l-1.875 1.875-0.964 0.937z"></path>
<path class="path8" fill="#646e9b" d="M19.393 31.168h-19.366v-0.937h-0.026v-1.875h19.393z"></path>
<path class="path9" fill="#213362" d="M19.393 22.337v8.832l0.502-0.502 1.373-1.347 1.043-1.030v-8.7z"></path>
</symbol>
</defs>
</svg>
